<svg xmlns="http://www.w3.org/2000/svg" width="1200" height="760" viewBox="0 0 1200 760">
  <rect width="100%" height="100%" fill="#f5f8fb"/>
  <rect x="0" y="0" width="1200" height="92" fill="#16324f"/>
  <text x="45" y="42" font-size="28" font-weight="700" fill="#fff" font-family="Arial,Segoe UI,sans-serif">ChatGPT Plugin Catalog — Tool Gallery</text>
  <text x="45" y="70" font-size="15" fill="#dce8f2" font-family="Arial,Segoe UI,sans-serif">92 discoverable apps • snapshot checked 2026-09-23 • gallery 3/4</text>
  <g>
      <rect x="45" y="120" width="270" height="95" rx="16" fill="#ffffff" stroke="#d7e1ea" stroke-width="2"/>
      <rect x="61" y="137" width="60" height="60" rx="14" fill="hsl(320,58%,42%)"/>
      <text x="91" y="174" text-anchor="middle" font-size="18" font-weight="700" fill="#fff" font-family="Arial,Segoe UI,sans-serif">NE</text>
      <text x="137" y="164" font-size="16" font-weight="700" fill="#18324a" font-family="Arial,Segoe UI,sans-serif">Neon</text>
      <text x="137" y="186" font-size="12" fill="#66788a" font-family="Arial,Segoe UI,sans-serif">ChatGPT app / connector</text>
    </g><g>
      <rect x="333" y="120" width="270" height="95" rx="16" fill="#ffffff" stroke="#d7e1ea" stroke-width="2"/>
      <rect x="349" y="137" width="60" height="60" rx="14" fill="hsl(209,58%,42%)"/>
      <text x="379" y="174" text-anchor="middle" font-size="18" font-weight="700" fill="#fff" font-family="Arial,Segoe UI,sans-serif">NE</text>
      <text x="425" y="164" font-size="16" font-weight="700" fill="#18324a" font-family="Arial,Segoe UI,sans-serif">NetSuite</text>
      <text x="425" y="186" font-size="12" fill="#66788a" font-family="Arial,Segoe UI,sans-serif">ChatGPT app / connector</text>
    </g><g>
      <rect x="621" y="120" width="270" height="95" rx="16" fill="#ffffff" stroke="#d7e1ea" stroke-width="2"/>
      <rect x="637" y="137" width="60" height="60" rx="14" fill="hsl(287,58%,42%)"/>
      <text x="667" y="174" text-anchor="middle" font-size="18" font-weight="700" fill="#fff" font-family="Arial,Segoe UI,sans-serif">NO</text>
      <text x="713" y="164" font-size="16" font-weight="700" fill="#18324a" font-family="Arial,Segoe UI,sans-serif">Notion</text>
      <text x="713" y="186" font-size="12" fill="#66788a" font-family="Arial,Segoe UI,sans-serif">ChatGPT app / connector</text>
    </g><g>
      <rect x="909" y="120" width="270" height="95" rx="16" fill="#ffffff" stroke="#d7e1ea" stroke-width="2"/>
      <rect x="925" y="137" width="60" height="60" rx="14" fill="hsl(11,58%,42%)"/>
      <text x="955" y="174" text-anchor="middle" font-size="18" font-weight="700" fill="#fff" font-family="Arial,Segoe UI,sans-serif">OC</text>
      <text x="1001" y="164" font-size="16" font-weight="700" fill="#18324a" font-family="Arial,Segoe UI,sans-serif">OpenAI Certified</text>
      <text x="1001" y="186" font-size="12" fill="#66788a" font-family="Arial,Segoe UI,sans-serif">ChatGPT app / connector</text>
    </g><g>
      <rect x="45" y="231" width="270" height="95" rx="16" fill="#ffffff" stroke="#d7e1ea" stroke-width="2"/>
      <rect x="61" y="248" width="60" height="60" rx="14" fill="hsl(197,58%,42%)"/>
      <text x="91" y="285" text-anchor="middle" font-size="18" font-weight="700" fill="#fff" font-family="Arial,Segoe UI,sans-serif">OD</text>
      <text x="137" y="275" font-size="16" font-weight="700" fill="#18324a" font-family="Arial,Segoe UI,sans-serif">OpenAI Developers</text>
      <text x="137" y="297" font-size="12" fill="#66788a" font-family="Arial,Segoe UI,sans-serif">ChatGPT app / connector</text>
    </g><g>
      <rect x="333" y="231" width="270" height="95" rx="16" fill="#ffffff" stroke="#d7e1ea" stroke-width="2"/>
      <rect x="349" y="248" width="60" height="60" rx="14" fill="hsl(329,58%,42%)"/>
      <text x="379" y="285" text-anchor="middle" font-size="18" font-weight="700" fill="#fff" font-family="Arial,Segoe UI,sans-serif">OP</text>
      <text x="425" y="275" font-size="16" font-weight="700" fill="#18324a" font-family="Arial,Segoe UI,sans-serif">OpenArt</text>
      <text x="425" y="297" font-size="12" fill="#66788a" font-family="Arial,Segoe UI,sans-serif">ChatGPT app / connector</text>
    </g><g>
      <rect x="621" y="231" width="270" height="95" rx="16" fill="#ffffff" stroke="#d7e1ea" stroke-width="2"/>
      <rect x="637" y="248" width="60" height="60" rx="14" fill="hsl(198,58%,42%)"/>
      <text x="667" y="285" text-anchor="middle" font-size="18" font-weight="700" fill="#fff" font-family="Arial,Segoe UI,sans-serif">OA</text>
      <text x="713" y="275" font-size="16" font-weight="700" fill="#18324a" font-family="Arial,Segoe UI,sans-serif">Otter.ai</text>
      <text x="713" y="297" font-size="12" fill="#66788a" font-family="Arial,Segoe UI,sans-serif">ChatGPT app / connector</text>
    </g><g>
      <rect x="909" y="231" width="270" height="95" rx="16" fill="#ffffff" stroke="#d7e1ea" stroke-width="2"/>
      <rect x="925" y="248" width="60" height="60" rx="14" fill="hsl(135,58%,42%)"/>
      <text x="955" y="285" text-anchor="middle" font-size="18" font-weight="700" fill="#fff" font-family="Arial,Segoe UI,sans-serif">OC</text>
      <text x="1001" y="275" font-size="16" font-weight="700" fill="#18324a" font-family="Arial,Segoe UI,sans-serif">Outlook Calendar</text>
      <text x="1001" y="297" font-size="12" fill="#66788a" font-family="Arial,Segoe UI,sans-serif">ChatGPT app / connector</text>
    </g><g>
      <rect x="45" y="342" width="270" height="95" rx="16" fill="#ffffff" stroke="#d7e1ea" stroke-width="2"/>
      <rect x="61" y="359" width="60" height="60" rx="14" fill="hsl(333,58%,42%)"/>
      <text x="91" y="396" text-anchor="middle" font-size="18" font-weight="700" fill="#fff" font-family="Arial,Segoe UI,sans-serif">OE</text>
      <text x="137" y="386" font-size="16" font-weight="700" fill="#18324a" font-family="Arial,Segoe UI,sans-serif">Outlook Email</text>
      <text x="137" y="408" font-size="12" fill="#66788a" font-family="Arial,Segoe UI,sans-serif">ChatGPT app / connector</text>
    </g><g>
      <rect x="333" y="342" width="270" height="95" rx="16" fill="#ffffff" stroke="#d7e1ea" stroke-width="2"/>
      <rect x="349" y="359" width="60" height="60" rx="14" fill="hsl(254,58%,42%)"/>
      <text x="379" y="396" text-anchor="middle" font-size="18" font-weight="700" fill="#fff" font-family="Arial,Segoe UI,sans-serif">PL</text>
      <text x="425" y="386" font-size="16" font-weight="700" fill="#18324a" font-family="Arial,Segoe UI,sans-serif">Plaud</text>
      <text x="425" y="408" font-size="12" fill="#66788a" font-family="Arial,Segoe UI,sans-serif">ChatGPT app / connector</text>
    </g><g>
      <rect x="621" y="342" width="270" height="95" rx="16" fill="#ffffff" stroke="#d7e1ea" stroke-width="2"/>
      <rect x="637" y="359" width="60" height="60" rx="14" fill="hsl(156,58%,42%)"/>
      <text x="667" y="396" text-anchor="middle" font-size="18" font-weight="700" fill="#fff" font-family="Arial,Segoe UI,sans-serif">PO</text>
      <text x="713" y="386" font-size="16" font-weight="700" fill="#18324a" font-family="Arial,Segoe UI,sans-serif">PostHog</text>
      <text x="713" y="408" font-size="12" fill="#66788a" font-family="Arial,Segoe UI,sans-serif">ChatGPT app / connector</text>
    </g><g>
      <rect x="909" y="342" width="270" height="95" rx="16" fill="#ffffff" stroke="#d7e1ea" stroke-width="2"/>
      <rect x="925" y="359" width="60" height="60" rx="14" fill="hsl(153,58%,42%)"/>
      <text x="955" y="396" text-anchor="middle" font-size="18" font-weight="700" fill="#fff" font-family="Arial,Segoe UI,sans-serif">RA</text>
      <text x="1001" y="386" font-size="16" font-weight="700" fill="#18324a" font-family="Arial,Segoe UI,sans-serif">Railway</text>
      <text x="1001" y="408" font-size="12" fill="#66788a" font-family="Arial,Segoe UI,sans-serif">ChatGPT app / connector</text>
    </g><g>
      <rect x="45" y="453" width="270" height="95" rx="16" fill="#ffffff" stroke="#d7e1ea" stroke-width="2"/>
      <rect x="61" y="470" width="60" height="60" rx="14" fill="hsl(44,58%,42%)"/>
      <text x="91" y="507" text-anchor="middle" font-size="18" font-weight="700" fill="#fff" font-family="Arial,Segoe UI,sans-serif">RD</text>
      <text x="137" y="497" font-size="16" font-weight="700" fill="#18324a" font-family="Arial,Segoe UI,sans-serif">Remote Desktop Command…</text>
      <text x="137" y="519" font-size="12" fill="#66788a" font-family="Arial,Segoe UI,sans-serif">ChatGPT app / connector</text>
    </g><g>
      <rect x="333" y="453" width="270" height="95" rx="16" fill="#ffffff" stroke="#d7e1ea" stroke-width="2"/>
      <rect x="349" y="470" width="60" height="60" rx="14" fill="hsl(168,58%,42%)"/>
      <text x="379" y="507" text-anchor="middle" font-size="18" font-weight="700" fill="#fff" font-family="Arial,Segoe UI,sans-serif">RE</text>
      <text x="425" y="497" font-size="16" font-weight="700" fill="#18324a" font-family="Arial,Segoe UI,sans-serif">Replit</text>
      <text x="425" y="519" font-size="12" fill="#66788a" font-family="Arial,Segoe UI,sans-serif">ChatGPT app / connector</text>
    </g><g>
      <rect x="621" y="453" width="270" height="95" rx="16" fill="#ffffff" stroke="#d7e1ea" stroke-width="2"/>
      <rect x="637" y="470" width="60" height="60" rx="14" fill="hsl(273,58%,42%)"/>
      <text x="667" y="507" text-anchor="middle" font-size="18" font-weight="700" fill="#fff" font-family="Arial,Segoe UI,sans-serif">RE</text>
      <text x="713" y="497" font-size="16" font-weight="700" fill="#18324a" font-family="Arial,Segoe UI,sans-serif">Resend</text>
      <text x="713" y="519" font-size="12" fill="#66788a" font-family="Arial,Segoe UI,sans-serif">ChatGPT app / connector</text>
    </g><g>
      <rect x="909" y="453" width="270" height="95" rx="16" fill="#ffffff" stroke="#d7e1ea" stroke-width="2"/>
      <rect x="925" y="470" width="60" height="60" rx="14" fill="hsl(347,58%,42%)"/>
      <text x="955" y="507" text-anchor="middle" font-size="18" font-weight="700" fill="#fff" font-family="Arial,Segoe UI,sans-serif">RP</text>
      <text x="1001" y="497" font-size="16" font-weight="700" fill="#18324a" font-family="Arial,Segoe UI,sans-serif">RingCentral Phone</text>
      <text x="1001" y="519" font-size="12" fill="#66788a" font-family="Arial,Segoe UI,sans-serif">ChatGPT app / connector</text>
    </g><g>
      <rect x="45" y="564" width="270" height="95" rx="16" fill="#ffffff" stroke="#d7e1ea" stroke-width="2"/>
      <rect x="61" y="581" width="60" height="60" rx="14" fill="hsl(182,58%,42%)"/>
      <text x="91" y="618" text-anchor="middle" font-size="18" font-weight="700" fill="#fff" font-family="Arial,Segoe UI,sans-serif">RU</text>
      <text x="137" y="608" font-size="16" font-weight="700" fill="#18324a" font-family="Arial,Segoe UI,sans-serif">Runway</text>
      <text x="137" y="630" font-size="12" fill="#66788a" font-family="Arial,Segoe UI,sans-serif">ChatGPT app / connector</text>
    </g><g>
      <rect x="333" y="564" width="270" height="95" rx="16" fill="#ffffff" stroke="#d7e1ea" stroke-width="2"/>
      <rect x="349" y="581" width="60" height="60" rx="14" fill="hsl(247,58%,42%)"/>
      <text x="379" y="618" text-anchor="middle" font-size="18" font-weight="700" fill="#fff" font-family="Arial,Segoe UI,sans-serif">SA</text>
      <text x="425" y="608" font-size="16" font-weight="700" fill="#18324a" font-family="Arial,Segoe UI,sans-serif">Salesforce</text>
      <text x="425" y="630" font-size="12" fill="#66788a" font-family="Arial,Segoe UI,sans-serif">ChatGPT app / connector</text>
    </g><g>
      <rect x="621" y="564" width="270" height="95" rx="16" fill="#ffffff" stroke="#d7e1ea" stroke-width="2"/>
      <rect x="637" y="581" width="60" height="60" rx="14" fill="hsl(288,58%,42%)"/>
      <text x="667" y="618" text-anchor="middle" font-size="18" font-weight="700" fill="#fff" font-family="Arial,Segoe UI,sans-serif">SC</text>
      <text x="713" y="608" font-size="16" font-weight="700" fill="#18324a" font-family="Arial,Segoe UI,sans-serif">Scite</text>
      <text x="713" y="630" font-size="12" fill="#66788a" font-family="Arial,Segoe UI,sans-serif">ChatGPT app / connector</text>
    </g><g>
      <rect x="909" y="564" width="270" height="95" rx="16" fill="#ffffff" stroke="#d7e1ea" stroke-width="2"/>
      <rect x="925" y="581" width="60" height="60" rx="14" fill="hsl(77,58%,42%)"/>
      <text x="955" y="618" text-anchor="middle" font-size="18" font-weight="700" fill="#fff" font-family="Arial,Segoe UI,sans-serif">SH</text>
      <text x="1001" y="608" font-size="16" font-weight="700" fill="#18324a" font-family="Arial,Segoe UI,sans-serif">SharePoint</text>
      <text x="1001" y="630" font-size="12" fill="#66788a" font-family="Arial,Segoe UI,sans-serif">ChatGPT app / connector</text>
    </g><g>
      <rect x="45" y="675" width="270" height="95" rx="16" fill="#ffffff" stroke="#d7e1ea" stroke-width="2"/>
      <rect x="61" y="692" width="60" height="60" rx="14" fill="hsl(306,58%,42%)"/>
      <text x="91" y="729" text-anchor="middle" font-size="18" font-weight="700" fill="#fff" font-family="Arial,Segoe UI,sans-serif">SH</text>
      <text x="137" y="719" font-size="16" font-weight="700" fill="#18324a" font-family="Arial,Segoe UI,sans-serif">Shopify</text>
      <text x="137" y="741" font-size="12" fill="#66788a" font-family="Arial,Segoe UI,sans-serif">ChatGPT app / connector</text>
    </g><g>
      <rect x="333" y="675" width="270" height="95" rx="16" fill="#ffffff" stroke="#d7e1ea" stroke-width="2"/>
      <rect x="349" y="692" width="60" height="60" rx="14" fill="hsl(329,58%,42%)"/>
      <text x="379" y="729" text-anchor="middle" font-size="18" font-weight="700" fill="#fff" font-family="Arial,Segoe UI,sans-serif">SK</text>
      <text x="425" y="719" font-size="16" font-weight="700" fill="#18324a" font-family="Arial,Segoe UI,sans-serif">Skyscanner</text>
      <text x="425" y="741" font-size="12" fill="#66788a" font-family="Arial,Segoe UI,sans-serif">ChatGPT app / connector</text>
    </g><g>
      <rect x="621" y="675" width="270" height="95" rx="16" fill="#ffffff" stroke="#d7e1ea" stroke-width="2"/>
      <rect x="637" y="692" width="60" height="60" rx="14" fill="hsl(118,58%,42%)"/>
      <text x="667" y="729" text-anchor="middle" font-size="18" font-weight="700" fill="#fff" font-family="Arial,Segoe UI,sans-serif">SL</text>
      <text x="713" y="719" font-size="16" font-weight="700" fill="#18324a" font-family="Arial,Segoe UI,sans-serif">Slack</text>
      <text x="713" y="741" font-size="12" fill="#66788a" font-family="Arial,Segoe UI,sans-serif">ChatGPT app / connector</text>
    </g><g>
      <rect x="909" y="675" width="270" height="95" rx="16" fill="#ffffff" stroke="#d7e1ea" stroke-width="2"/>
      <rect x="925" y="692" width="60" height="60" rx="14" fill="hsl(112,58%,42%)"/>
      <text x="955" y="729" text-anchor="middle" font-size="18" font-weight="700" fill="#fff" font-family="Arial,Segoe UI,sans-serif">SU</text>
      <text x="1001" y="719" font-size="16" font-weight="700" fill="#18324a" font-family="Arial,Segoe UI,sans-serif">Smartsheet US</text>
      <text x="1001" y="741" font-size="12" fill="#66788a" font-family="Arial,Segoe UI,sans-serif">ChatGPT app / connector</text>
    </g>
  <text x="45" y="738" font-size="12" fill="#718096" font-family="Arial,Segoe UI,sans-serif">Generated identification badges — not official provider logos.</text>
  </svg>